HIERARCHY
ROOT Hips
{
	OFFSET	0.00	0.00	0.00
	CHANNELS 6 Xposition Yposition Zposition Zrotation Xrotation Yrotation
	JOINT LeftUpLeg
	{
		OFFSET	 0.126116	-0.065224	 0.014019
		CHANNELS 3 Zrotation Xrotation Yrotation
		JOINT LeftLeg
		{
			OFFSET	 0.000000	 0.569914	 0.000000
			CHANNELS 3 Zrotation Xrotation Yrotation
			JOINT LeftFoot
			{
				OFFSET	 0.000000	 0.544423	 0.000000
				CHANNELS 3 Zrotation Xrotation Yrotation
				JOINT LeftToeBase
				{
					OFFSET	 0.000000	 0.207117	 0.000000
					CHANNELS 3 Zrotation Xrotation Yrotation
					End Site
					{
						OFFSET	 0.000000	 0.207117	 0.000000
					}
				}
			}
		}
	}
	JOINT RightUpLeg
	{
		OFFSET	-0.124023	-0.065224	 0.008373
		CHANNELS 3 Zrotation Xrotation Yrotation
		JOINT RightLeg
		{
			OFFSET	 0.000000	 0.570047	 0.000000
			CHANNELS 3 Zrotation Xrotation Yrotation
			JOINT RightFoot
			{
				OFFSET	 0.000000	 0.544354	 0.000000
				CHANNELS 3 Zrotation Xrotation Yrotation
				JOINT RightToeBase
				{
					OFFSET	 0.000000	 0.207540	 0.000000
					CHANNELS 3 Zrotation Xrotation Yrotation
					End Site
					{
						OFFSET	 0.000000	 0.207540	 0.000000
					}
				}
			}
		}
	}
	JOINT Spine
	{
		OFFSET	 0.000184	 0.117403	 0.007763
		CHANNELS 3 Zrotation Xrotation Yrotation
		JOINT Spine1
		{
			OFFSET	 0.000000	 0.137269	 0.000000
			CHANNELS 3 Zrotation Xrotation Yrotation
			JOINT Spine2
			{
				OFFSET	 0.000000	 0.156879	 0.000000
				CHANNELS 3 Zrotation Xrotation Yrotation
				JOINT LeftShoulder
				{
					OFFSET	 0.080501	 0.160143	 0.002496
					CHANNELS 3 Zrotation Xrotation Yrotation
					JOINT LeftArm
					{
						OFFSET	 0.000000	 0.164363	 0.000000
						CHANNELS 3 Zrotation Xrotation Yrotation
						JOINT LeftForeArm
						{
							OFFSET	 0.000000	 0.364576	 0.000000
							CHANNELS 3 Zrotation Xrotation Yrotation
							JOINT LeftHand
							{
								OFFSET	 0.000000	 0.360812	 0.000000
								CHANNELS 3 Zrotation Xrotation Yrotation
								JOINT LeftHandIndex1
								{
									OFFSET	 0.000000	 0.086006	 0.000000
									CHANNELS 3 Zrotation Xrotation Yrotation
									JOINT LeftHandIndex2
									{
										OFFSET	 0.000000	 0.047237	 0.000000
										CHANNELS 3 Zrotation Xrotation Yrotation
										JOINT LeftHandIndex3
										{
											OFFSET	-0.004284	 0.038165	 0.000551
											CHANNELS 3 Zrotation Xrotation Yrotation
											End Site
											{
												OFFSET	-0.004284	 0.038165	 0.000551
											}
										}
									}
								}
							}
						}
					}
				}
				JOINT Neck
				{
					OFFSET	 0.000000	 0.176489	 0.000000
					CHANNELS 3 Zrotation Xrotation Yrotation
					JOINT Head
					{
						OFFSET	 0.000000	 0.077941	 0.001747
						CHANNELS 3 Zrotation Xrotation Yrotation
						End Site
						{
							OFFSET	 0.000000	 0.077941	 0.001747
						}
					}
				}
				JOINT RightShoulder
				{
					OFFSET	-0.080363	 0.159706	-0.000306
					CHANNELS 3 Zrotation Xrotation Yrotation
					JOINT RightArm
					{
						OFFSET	 0.000000	 0.164196	 0.000000
						CHANNELS 3 Zrotation Xrotation Yrotation
						JOINT RightForeArm
						{
							OFFSET	 0.000000	 0.365611	 0.000000
							CHANNELS 3 Zrotation Xrotation Yrotation
							JOINT RightHand
							{
								OFFSET	 0.000000	 0.360648	 0.000000
								CHANNELS 3 Zrotation Xrotation Yrotation
								JOINT RightHandIndex1
								{
									OFFSET	 0.000000	 0.069977	 0.000000
									CHANNELS 3 Zrotation Xrotation Yrotation
									JOINT RightHandIndex2
									{
										OFFSET	 0.000000	 0.052305	 0.000000
										CHANNELS 3 Zrotation Xrotation Yrotation
										JOINT RightHandIndex3
										{
											OFFSET	 0.009002	 0.042196	 0.000782
											CHANNELS 3 Zrotation Xrotation Yrotation
											End Site
											{
												OFFSET	 0.009002	 0.042196	 0.000782
											}
										}
									}
								}
							}
						}
					}
				}
			}
		}
	}
}
MOTION
Frames:    9
Frame Time: 0.03333334
-0.049231	 1.221627	-1.336596	-4.039780	 1.524593	-174.100500	 175.112500	 7.371525	-18.072260	 4.615317	-31.260850	 6.225232	 8.320576	 82.723870	-1.288957	 1.512287	 31.240310	-2.811662	 165.807000	 23.245600	 21.994300	-6.602667	-56.817330	 5.647322	 10.922210	 76.372450	-7.981286	-1.668530	 33.137300	 2.886185	-1.386798	 8.707558	 6.837812	-3.837953	 4.391669	 4.320714	 4.268693	-4.700005	-15.370840	-121.358900	 7.423537	 94.035500	 36.185490	 32.800480	-12.944100	 4.916045	-0.254131	-0.072973	 15.805470	 18.561070	 26.213160	 4.624177	 18.856530	-1.654968	-5.863953	 21.470840	 2.373669	 5.331528	 4.340008	-0.169039	-0.168371	-5.009586	-0.144698	-2.109111	-2.513847	-6.836676	 118.423900	-0.013277	-90.826370	-3.355705	 46.424280	-2.352316	-4.981516	-0.195743	 0.050040	-2.819858	 9.283585	 21.916240	-2.438165	 25.992480	 1.336381	 15.855080	 44.981340	-11.843920	-8.529009	 23.990480	-1.227679
-0.048977	 1.222471	-1.330673	-3.939573	 1.374005	-174.100500	 175.398700	 7.492486	-18.904190	 4.587333	-31.091740	 6.220506	 8.344666	 82.634570	-1.273210	 1.512708	 31.245560	-2.811860	 165.469400	 23.498350	 22.978910	-6.559499	-56.637510	 5.688098	 10.140190	 76.131490	-7.407998	-1.668714	 33.139500	 2.886277	-1.214851	 8.982643	 6.806705	-4.019016	 2.847496	 4.161965	 4.550934	-2.729694	-15.250150	-121.358700	 7.428795	 94.038120	 36.656010	 32.225070	-13.167460	 4.899065	-0.252993	-0.070158	 13.966130	 18.890360	 26.495970	 4.624856	 18.858760	-1.655329	-5.863947	 21.472790	 2.373885	 5.331612	 4.341975	-0.169003	-0.168467	-5.010032	-0.144256	-2.086413	-2.273523	-6.806235	 118.423200	-0.016377	-90.824910	-4.545331	 46.373510	-1.357048	-4.953358	-0.194510	 0.047317	-0.973770	 10.326850	 21.299710	-2.435694	 25.974190	 1.335052	 15.850400	 44.963490	-11.836760	-8.529082	 23.972110	-1.226452
-0.048787	 1.223023	-1.326610	-3.853404	 1.244303	-174.084200	 175.636900	 7.567707	-19.579000	 4.576406	-30.979730	 6.248511	 8.531604	 82.602250	-1.436062	 1.514162	 31.263650	-2.812544	 165.205900	 23.517320	 23.812860	-6.531653	-56.497130	 5.727500	 10.132140	 76.376850	-7.441500	-1.669348	 33.147080	 2.886594	-1.108001	 9.210921	 6.713788	-4.210207	 1.086511	 3.919209	 4.757141	-0.877676	-14.874920	-121.358200	 7.446900	 94.047110	 36.774190	 31.942000	-13.272550	 4.895635	-0.252282	-0.060455	 12.485700	 18.772380	 26.325950	 4.627193	 18.866430	-1.656575	-5.863926	 21.479530	 2.374628	 5.331901	 4.348752	-0.168880	-0.168799	-5.011571	-0.142734	-2.062803	-2.065151	-6.705091	 118.420700	-0.027063	-90.819870	-5.199306	 46.407910	-0.765825	-4.938894	-0.193570	 0.037582	 0.649277	 11.185630	 19.999570	-2.427187	 25.911130	 1.330480	 15.834350	 44.901990	-11.812100	-8.529331	 23.908820	-1.222229
-0.048623	 1.223375	-1.323849	-3.773830	 1.123796	-174.051600	 175.856700	 7.598613	-20.186990	 4.578507	-30.901320	 6.308431	 8.880621	 82.618230	-1.775991	 1.516705	 31.295270	-2.813741	 164.981800	 23.301580	 24.597010	-6.514945	-56.377580	 5.769767	 10.924080	 77.103100	-8.114650	-1.670458	 33.160350	 2.887149	-1.052914	 9.424780	 6.602900	-4.439855	-1.100332	 3.596460	 4.929082	 1.090788	-14.299510	-121.357400	 7.478553	 94.062810	 36.581360	 31.916010	-13.279560	 4.904538	-0.251882	-0.043260	 11.190120	 18.325240	 25.846510	 4.631281	 18.879840	-1.658756	-5.863890	 21.491310	 2.375929	 5.332407	 4.360605	-0.168664	-0.169378	-5.014264	-0.140071	-2.036362	-1.867081	-6.547295	 118.416300	-0.045731	-90.811130	-5.433435	 46.523490	-0.480496	-4.933330	-0.192610	 0.020487	 2.284531	 11.954500	 18.103530	-2.412334	 25.800860	 1.322516	 15.806390	 44.794390	-11.769100	-8.529755	 23.798120	-1.214849
-0.048458	 1.223564	-1.322327	-3.693902	 1.006999	-173.998800	 176.080300	 7.566310	-20.698230	 4.540216	-30.846280	 6.304753	 9.438210	 82.688550	-2.344515	 1.520638	 31.344160	-2.815595	 164.790300	 22.760590	 25.395400	-6.504482	-56.249650	 5.822476	 12.993540	 78.420250	-9.862725	-1.672174	 33.180850	 2.888008	-1.056431	 9.628591	 6.472838	-4.714432	-4.000294	 3.162642	 5.067885	 3.399614	-13.474140	-121.356100	 7.527492	 94.087130	 35.999650	 32.195720	-13.155860	 4.924155	-0.251348	-0.016777	 9.964232	 17.492230	 25.027530	 4.637602	 18.900570	-1.662128	-5.863833	 21.509530	 2.377939	 5.333189	 4.378925	-0.168332	-0.170273	-5.018425	-0.135955	-2.004930	-1.662604	-6.318049	 118.409500	-0.074586	-90.797580	-5.198050	 46.742750	-0.529195	-4.937253	-0.191637	-0.005968	 4.126714	 12.671270	 15.419040	-2.389434	 25.630390	 1.310282	 15.763500	 44.628050	-11.702940	-8.530378	 23.627000	-1.203454
-0.048278	 1.223605	-1.322515	-3.612025	 0.900250	-173.921200	 176.339400	 7.541420	-21.238280	 4.573748	-31.031830	 6.401420	 10.439380	 82.954670	-3.393882	 1.526254	 31.413870	-2.818248	 164.664900	 21.724630	 26.197430	-6.488510	-56.052350	 5.898899	 17.678660	 80.440540	-13.946540	-1.674621	 33.210090	 2.889234	-1.144713	 9.752597	 6.316118	-4.995737	-7.781517	 2.597698	 5.129906	 6.130066	-12.339420	-121.354400	 7.597267	 94.121770	 34.850990	 32.899840	-12.803850	 4.961362	-0.251178	 0.021126	 8.809339	 16.157590	 23.801330	 4.646620	 18.930130	-1.666942	-5.863756	 21.535500	 2.380806	 5.334305	 4.405048	-0.167858	-0.171549	-5.024357	-0.130086	-1.968162	-1.452224	-6.000113	 118.399800	-0.115733	-90.778280	-4.300471	 47.094140	-1.057822	-4.950325	-0.190525	-0.043661	 6.260815	 13.276090	 11.748950	-2.356903	 25.387290	 1.292996	 15.703020	 44.390800	-11.609210	-8.531200	 23.382980	-1.187234
-0.048037	 1.223599	-1.325459	-3.517691	 0.814060	-173.805100	 176.634300	 7.298279	-21.787470	 4.596835	-31.159190	 6.530525	 11.933830	 83.313290	-4.996224	 1.534546	 31.516620	-2.822176	 164.688400	 19.736640	 26.932660	-6.300478	-55.581840	 6.196403	 30.889280	 83.372800	-26.073500	-1.678232	 33.253180	 2.891045	-1.371168	 9.544660	 6.102579	-5.183194	-12.804110	 1.846929	 5.002118	 9.492270	-10.673860	-121.351800	 7.700101	 94.172860	 32.647920	 34.307080	-11.933580	 5.024006	-0.251325	 0.076926	 7.692565	 13.965080	 21.902270	 4.659918	 18.973710	-1.674047	-5.863643	 21.573780	 2.385033	 5.335948	 4.443553	-0.167160	-0.173429	-5.033103	-0.121436	-1.923163	-1.228141	-5.534240	 118.385500	-0.176404	-90.749830	-2.236091	 47.642650	-2.440063	-4.980144	-0.189329	-0.099312	 8.959617	 13.668770	 6.432442	-2.309213	 25.028900	 1.267855	 15.615280	 44.040900	-11.472360	-8.532272	 23.023240	-1.163383
-0.047615	 1.224069	-1.334055	-3.390689	 0.819300	-173.622000	 176.981400	 6.427000	-22.341700	 4.546772	-30.882690	 6.690534	 14.348540	 83.713750	-7.656556	 1.547710	 31.679290	-2.828439	 165.156700	 15.517410	 27.655290	-5.936114	-53.980110	 6.683525	 87.781820	 85.811190	-80.920440	-1.683955	 33.321400	 2.893920	-1.815750	 8.072632	 5.777144	-4.948488	-19.124750	 0.887641	 4.369468	 13.488670	-7.970489	-121.348000	 7.862919	 94.253740	 28.032240	 37.022740	-9.567200	 5.139402	-0.252373	 0.165388	 6.725148	 10.074850	 18.681760	 4.680990	 19.042680	-1.685322	-5.863472	 21.634390	 2.391727	 5.338550	 4.504511	-0.166057	-0.176402	-5.046948	-0.107742	-1.866097	-1.003677	-4.797203	 118.363000	-0.272459	-90.704820	 2.336311	 48.458630	-5.687454	-5.037752	-0.187869	-0.187509	 12.633140	 13.494700	-1.866215	-2.234333	 24.461380	 1.228863	 15.479760	 43.486550	-11.258800	-8.533635	 22.453630	-1.125760
-0.047093	 1.225799	-1.346560	-3.264521	 1.068539	-173.432200	 177.246800	 4.777469	-22.725600	 4.356057	-29.814360	 6.791707	 16.264680	 83.829090	-9.897965	 1.561726	 31.851900	-2.835145	 166.252700	 9.538994	 27.928910	-5.240578	-50.537250	 7.448652	 137.720000	 82.863170	-128.388900	-1.690037	 33.393790	 2.896982	-2.204444	 5.104498	 5.472777	-4.186430	-23.520160	 0.186782	 3.335309	 16.153370	-5.052544	-121.344200	 8.035719	 94.339590	 21.654230	 40.081500	-5.489788	 5.281981	-0.254427	 0.259305	 6.459164	 5.572127	 15.040920	 4.703375	 19.115870	-1.697320	-5.863298	 21.698690	 2.398833	 5.341309	 4.569194	-0.164890	-0.179553	-5.061640	-0.093211	-1.818434	-0.899541	-4.036244	 118.339300	-0.374398	-90.657130	 8.488559	 49.058320	-10.179530	-5.110168	-0.186717	-0.281098	 15.888760	 12.578660	-10.324000	-2.155686	 23.859000	 1.188556	 15.340350	 42.897820	-11.036230	-8.534634	 21.849090	-1.086013
